<svg xmlns="http://www.w3.org/2000/svg" viewBox="0 0 64 64" role="img" aria-labelledby="title desc">
  <title id="title">Millena</title>
  <desc id="desc">Stilizirani profil ženskog lica povezan s digitalnim točkama.</desc>
  <rect width="64" height="64" rx="14" fill="#6D28D9"/>
  <path d="M17 49.5c1.7-8.2 2.4-17.9 1.4-29.4 5.3-5.7 11.8-8.6 19.5-8.6 3.6 0 6.8.8 9.6 2.4-5.7.7-9.7 3.4-11.8 8.1-1.2 2.6-1.4 5.4-.8 8.3l-3.2 4.3c-.8 1.1-.1 2.6 1.2 2.8l3 .4c.5 3.3 2.2 5.9 5.2 7.7-4.3.6-7.7 2.4-10.4 5.5H17v-1.5Z" fill="#F8F7FF"/>
  <path d="M20.2 19.1c5.7-5.7 13.2-8.1 22.7-7.2-7.1 2.2-11.3 6.8-12.4 13.9-1.2 7.3-4.3 13.2-9.4 17.6.6-7.3.3-15.4-.9-24.3Z" fill="#A78BFA"/>
  <circle cx="43.5" cy="25" r="1.7" fill="#6D28D9"/>
  <path d="M45.2 32.6c2.7.8 5.3.3 7.7-1.5" fill="none" stroke="#A78BFA" stroke-width="2" stroke-linecap="round"/>
  <path d="M44.5 17.7c5.6.3 9.3 3.1 11 8.5M47.1 44.4c4.7-1.1 7.7-4 9.1-8.6" fill="none" stroke="#C4B5FD" stroke-width="1.8" stroke-linecap="round"/>
  <circle cx="55.5" cy="26.2" r="2.8" fill="#2DD4BF"/>
  <circle cx="56.2" cy="35.8" r="2.2" fill="#F8F7FF"/>
</svg>
